<svg xmlns="http://www.w3.org/2000/svg" viewBox="0 0 64 64">
  <rect width="64" height="64" rx="14" fill="#9c5a1e"/>
  <rect width="64" height="64" rx="14" fill="url(#g)"/>
  <defs>
    <linearGradient id="g" x1="0" y1="0" x2="64" y2="64" gradientUnits="userSpaceOnUse">
      <stop offset="0" stop-color="#c9803a"/>
      <stop offset="1" stop-color="#7a430f"/>
    </linearGradient>
  </defs>
  <!-- central chhatri dome -->
  <circle cx="32" cy="20" r="6" fill="#f6e3c8"/>
  <rect x="30.5" y="10" width="3" height="6" fill="#f6e3c8"/>
  <path d="M20 26 Q32 14 44 26 L44 30 L20 30 Z" fill="#f6e3c8"/>
  <!-- palace body -->
  <rect x="14" y="30" width="36" height="22" fill="#f6e3c8"/>
  <rect x="14" y="30" width="36" height="4" fill="#e8cfa8"/>
  <!-- arches -->
  <path d="M19 52 V42 Q19 38 23 38 Q27 38 27 42 V52 Z" fill="#9c5a1e"/>
  <path d="M29.5 52 V42 Q29.5 38 32 38 Q34.5 38 34.5 42 V52 Z" fill="#9c5a1e"/>
  <path d="M37 52 V42 Q37 38 41 38 Q45 38 45 42 V52 Z" fill="#9c5a1e"/>
  <!-- side towers -->
  <rect x="12" y="34" width="6" height="18" fill="#e8cfa8"/>
  <rect x="46" y="34" width="6" height="18" fill="#e8cfa8"/>
  <circle cx="15" cy="32" r="3" fill="#f6e3c8"/>
  <circle cx="49" cy="32" r="3" fill="#f6e3c8"/>
  <rect x="0" y="52" width="64" height="12" fill="#3e6b3a"/>
</svg>
